<svg width="267" height="99" viewBox="0 0 267 99" fill="none"  xmlns="http://www.w3.org/2000/svg">
<path d="M110.101 33.7561C109.489 33.7724 108.88 33.6685 108.307 33.4501C107.857 33.2686 107.448 32.9963 107.107 32.6501C106.799 32.3342 106.568 31.9502 106.434 31.5291C106.303 31.1206 106.235 30.6942 106.234 30.2651C106.232 29.7361 106.325 29.211 106.509 28.7151C106.685 28.2411 106.944 27.8025 107.274 27.4201C107.599 27.0526 107.994 26.7543 108.436 26.5431C108.883 26.3456 109.365 26.2386 109.853 26.2281C110.341 26.2177 110.827 26.304 111.281 26.4821C111.682 26.6416 112.043 26.8847 112.342 27.1951C112.641 27.5055 112.87 27.8761 113.014 28.2821C113.174 28.7313 113.253 29.2053 113.248 29.6821V31.7431H114.482C114.549 31.7387 114.615 31.7493 114.677 31.774C114.739 31.7988 114.794 31.8371 114.839 31.8861C114.912 31.9791 114.952 32.0939 114.951 32.2121V33.2721C114.942 33.3853 114.903 33.4942 114.839 33.5881C114.8 33.6455 114.746 33.6916 114.684 33.722C114.621 33.7523 114.552 33.7658 114.482 33.7611H110.108L110.101 33.7561ZM107.46 24.1621C107.46 24.0291 107.487 23.8975 107.539 23.7749C107.59 23.6523 107.665 23.5412 107.76 23.4481C107.962 23.2581 108.228 23.1523 108.505 23.1523C108.782 23.1523 109.048 23.2581 109.249 23.4481C109.346 23.5401 109.422 23.6509 109.474 23.7738C109.525 23.8967 109.551 24.0288 109.549 24.1621C109.55 24.2952 109.524 24.4271 109.472 24.5498C109.421 24.6725 109.345 24.7835 109.249 24.8761C109.048 25.066 108.782 25.1718 108.505 25.1718C108.228 25.1718 107.962 25.066 107.76 24.8761C107.664 24.784 107.588 24.6731 107.537 24.5502C107.485 24.4274 107.46 24.2952 107.461 24.1621H107.46ZM111.26 31.7471V30.2071C111.296 29.6739 111.164 29.143 110.883 28.6881C110.761 28.5126 110.596 28.3715 110.403 28.2787C110.21 28.1859 109.997 28.1443 109.783 28.1581C109.576 28.1574 109.371 28.2028 109.183 28.2911C108.989 28.3754 108.815 28.5006 108.673 28.6581C108.517 28.8202 108.392 29.0106 108.306 29.2191C108.21 29.4552 108.162 29.7081 108.163 29.9631C108.155 30.2462 108.207 30.5278 108.316 30.7891C108.412 31.0024 108.555 31.191 108.734 31.3401C108.912 31.4827 109.116 31.59 109.334 31.6561C109.563 31.7177 109.798 31.7486 110.034 31.7481H111.257L111.26 31.7471ZM110.16 24.1621C110.16 24.0291 110.187 23.8975 110.238 23.7749C110.29 23.6523 110.365 23.5412 110.46 23.4481C110.662 23.2581 110.928 23.1523 111.205 23.1523C111.482 23.1523 111.748 23.2581 111.949 23.4481C112.046 23.5401 112.122 23.6509 112.174 23.7738C112.225 23.8967 112.251 24.0288 112.249 24.1621C112.25 24.2952 112.224 24.4271 112.172 24.5498C112.121 24.6725 112.045 24.7835 111.949 24.8761C111.748 25.066 111.482 25.1718 111.205 25.1718C110.928 25.1718 110.662 25.066 110.46 24.8761C110.364 24.7839 110.288 24.673 110.237 24.5501C110.186 24.4273 110.16 24.2952 110.162 24.1621H110.16Z" fill="#002F5F"/>
<path d="M114.363 33.7548C114.169 33.7548 114.037 33.7038 113.986 33.6118C113.927 33.5173 113.898 33.407 113.904 33.2958V32.2758C113.908 32.1456 113.947 32.019 114.016 31.9088C114.055 31.8514 114.109 31.8052 114.172 31.7749C114.234 31.7446 114.304 31.7311 114.373 31.7358H116.035C116.135 31.749 116.236 31.7329 116.327 31.6894C116.417 31.6459 116.493 31.5768 116.545 31.4908C116.64 31.2832 116.686 31.0561 116.678 30.8278V26.8428H118.656V30.1358C118.641 30.5414 118.755 30.9412 118.982 31.2778C119.132 31.4409 119.318 31.5666 119.525 31.6446C119.732 31.7226 119.955 31.7507 120.175 31.7268H120.775C120.969 31.7268 121.101 31.7778 121.152 31.8698C121.214 31.9669 121.246 32.0804 121.244 32.1958V33.2558C121.235 33.369 121.196 33.4779 121.132 33.5718C121.093 33.6292 121.039 33.6753 120.976 33.7056C120.914 33.736 120.844 33.7495 120.775 33.7448H120.112C119.674 33.7672 119.242 33.6375 118.889 33.3778C118.607 33.1578 118.37 32.8863 118.189 32.5778C117.987 32.9206 117.703 33.2079 117.363 33.4138C116.985 33.6404 116.55 33.7535 116.109 33.7398H114.366L114.363 33.7548ZM115.263 35.9368C115.262 35.8057 115.288 35.6758 115.34 35.5553C115.391 35.4348 115.467 35.3263 115.563 35.2368C115.767 35.0529 116.033 34.9511 116.308 34.9511C116.582 34.9511 116.848 35.0529 117.052 35.2368C117.147 35.3269 117.223 35.4355 117.274 35.5559C117.326 35.6762 117.352 35.8058 117.352 35.9368C117.355 36.0716 117.33 36.2056 117.278 36.3302C117.226 36.4548 117.149 36.5674 117.052 36.6608C116.848 36.8447 116.582 36.9464 116.308 36.9464C116.033 36.9464 115.767 36.8447 115.563 36.6608C115.466 36.567 115.389 36.4545 115.337 36.33C115.285 36.2055 115.259 36.0717 115.26 35.9368H115.263ZM117.944 35.9368C117.943 35.8057 117.969 35.6758 118.02 35.5553C118.072 35.4347 118.148 35.3263 118.244 35.2368C118.448 35.0529 118.714 34.9511 118.989 34.9511C119.263 34.9511 119.529 35.0529 119.733 35.2368C119.828 35.3269 119.904 35.4355 119.955 35.5559C120.007 35.6762 120.033 35.8058 120.033 35.9368C120.036 36.0716 120.011 36.2056 119.959 36.3302C119.907 36.4548 119.83 36.5674 119.733 36.6608C119.529 36.8447 119.263 36.9464 118.989 36.9464C118.714 36.9464 118.448 36.8447 118.244 36.6608C118.147 36.567 118.07 36.4545 118.018 36.33C117.966 36.2055 117.94 36.0717 117.941 35.9368H117.944Z" fill="#002F5F"/>
<path d="M120.645 33.7561C120.58 33.7616 120.514 33.7515 120.454 33.7266C120.393 33.7017 120.34 33.6628 120.298 33.6131C120.229 33.5226 120.193 33.4108 120.198 33.2971V32.2771C120.202 32.147 120.24 32.0203 120.31 31.9101C120.345 31.854 120.395 31.8084 120.454 31.778C120.513 31.7476 120.579 31.7335 120.646 31.7371H123.022V26.8541H125V33.7431H120.647L120.645 33.7561ZM121.552 24.1621C121.552 24.0291 121.578 23.8975 121.63 23.7749C121.681 23.6523 121.757 23.5412 121.852 23.4481C122.053 23.2581 122.319 23.1523 122.596 23.1523C122.873 23.1523 123.139 23.2581 123.341 23.4481C123.437 23.5401 123.513 23.6509 123.565 23.7738C123.617 23.8967 123.642 24.0288 123.641 24.1621C123.641 24.2952 123.615 24.4271 123.564 24.5498C123.512 24.6725 123.436 24.7835 123.341 24.8761C123.139 25.066 122.873 25.1718 122.596 25.1718C122.319 25.1718 122.053 25.066 121.852 24.8761C121.753 24.7855 121.676 24.6749 121.624 24.5517C121.572 24.4285 121.548 24.2956 121.552 24.1621ZM124.252 24.1621C124.252 24.0291 124.278 23.8975 124.33 23.7749C124.381 23.6523 124.457 23.5412 124.552 23.4481C124.753 23.2581 125.019 23.1523 125.296 23.1523C125.573 23.1523 125.839 23.2581 126.041 23.4481C126.137 23.5401 126.213 23.6509 126.265 23.7738C126.317 23.8967 126.342 24.0288 126.341 24.1621C126.341 24.2952 126.315 24.4271 126.264 24.5498C126.212 24.6725 126.136 24.7835 126.041 24.8761C125.839 25.066 125.573 25.1718 125.296 25.1718C125.019 25.1718 124.753 25.066 124.552 24.8761C124.454 24.7853 124.376 24.6746 124.325 24.5515C124.274 24.4283 124.249 24.2955 124.254 24.1621H124.252Z" fill="#002F5F"/>
<path d="M127.608 21.3579H129.586V31.7469H130.758C130.827 31.7386 130.898 31.7472 130.964 31.7721C131.029 31.797 131.088 31.8374 131.135 31.8899C131.204 31.9842 131.239 32.0991 131.235 32.2159V33.2759C131.226 33.3909 131.183 33.5007 131.113 33.5919C131.071 33.6489 131.015 33.6945 130.951 33.7247C130.887 33.7549 130.816 33.7687 130.746 33.7649H127.596V21.3579H127.608Z" fill="#002F5F"/>
<path d="M130.676 33.7558C130.608 33.7621 130.54 33.7525 130.476 33.7276C130.412 33.7028 130.355 33.6635 130.309 33.6128C130.24 33.5223 130.205 33.4105 130.209 33.2968V32.2768C130.213 32.1467 130.252 32.02 130.321 31.9098C130.361 31.8524 130.414 31.8062 130.477 31.7759C130.54 31.7456 130.609 31.7321 130.678 31.7368H131.351C132.065 31.7368 132.422 31.1965 132.422 30.1158C132.42 29.5912 132.51 29.0703 132.687 28.5768C132.855 28.1261 133.111 27.7136 133.441 27.3638C133.764 27.0276 134.149 26.7561 134.573 26.5638C135.023 26.3679 135.51 26.2707 136 26.2788C136.522 26.2705 137.04 26.3728 137.519 26.5788C137.938 26.7588 138.306 27.0391 138.59 27.3948C138.879 27.7652 139.093 28.1875 139.222 28.6388C139.365 29.1564 139.433 29.6919 139.422 30.2288C139.423 30.6736 139.361 31.1162 139.238 31.5438C139.126 31.9613 138.921 32.3481 138.638 32.6758C138.348 33.0135 137.986 33.2818 137.578 33.4608C137.079 33.6713 136.54 33.7736 135.998 33.7608C135.743 33.7624 135.487 33.7487 135.233 33.7198C134.976 33.6925 134.722 33.6344 134.478 33.5468C133.949 33.3656 133.487 33.0277 133.153 32.5778C133.013 32.9434 132.759 33.2543 132.429 33.4648C132.138 33.6526 131.797 33.7516 131.45 33.7498H130.675L130.676 33.7558ZM135.976 31.8558C136.202 31.8742 136.428 31.8384 136.637 31.7514C136.846 31.6644 137.031 31.5288 137.176 31.3558C137.443 31.0088 137.579 30.5798 137.563 30.1428C137.565 29.8644 137.517 29.588 137.42 29.3268C137.337 29.101 137.216 28.8908 137.063 28.7048C136.927 28.5379 136.756 28.4016 136.563 28.3048C136.377 28.2122 136.172 28.1633 135.963 28.1618C135.748 28.1619 135.535 28.2108 135.341 28.3048C135.144 28.3986 134.97 28.5353 134.831 28.7048C134.682 28.8913 134.564 29.1015 134.484 29.3268C134.391 29.5884 134.346 29.865 134.351 30.1428C134.341 30.5735 134.473 30.9956 134.728 31.3428C134.879 31.5237 135.072 31.6653 135.29 31.7554C135.507 31.8454 135.744 31.8813 135.978 31.8598L135.976 31.8558Z" fill="#002F5F"/>
<path d="M148.427 33.7557C148.413 34.3514 148.277 34.938 148.027 35.4787C147.81 35.9375 147.489 36.339 147.089 36.6507C146.673 36.9578 146.202 37.1828 145.702 37.3137C145.129 37.4619 144.539 37.5339 143.948 37.5277C143.683 37.5277 143.408 37.5177 143.112 37.4967C142.794 37.476 142.477 37.4386 142.164 37.3847L142.307 35.4477C142.643 35.4987 142.959 35.5297 143.255 35.5477C143.551 35.5657 143.816 35.5787 144.03 35.5787C144.337 35.582 144.644 35.5583 144.948 35.5077C145.22 35.466 145.482 35.3762 145.723 35.2427C145.948 35.1102 146.135 34.92 146.263 34.6917C146.409 34.3976 146.483 34.0723 146.477 33.7437H145.313C144.693 33.7599 144.077 33.656 143.498 33.4377C143.047 33.259 142.641 32.9863 142.305 32.6377C142.002 32.3186 141.776 31.9354 141.642 31.5167C141.505 31.1094 141.437 30.6822 141.442 30.2527C141.441 29.7247 141.53 29.2004 141.707 28.7027C141.878 28.2293 142.134 27.7907 142.461 27.4077C142.781 27.0405 143.173 26.7421 143.613 26.5307C144.075 26.3149 144.58 26.2069 145.091 26.2147C145.57 26.2045 146.046 26.2912 146.491 26.4697C146.888 26.63 147.246 26.8735 147.541 27.1837C147.833 27.4991 148.058 27.8702 148.204 28.2747C148.36 28.7246 148.436 29.1985 148.428 29.6747V31.7337H150.12C150.189 31.7254 150.26 31.7341 150.326 31.759C150.391 31.7839 150.45 31.8243 150.497 31.8767C150.566 31.971 150.601 32.0858 150.597 32.2027V33.2627C150.587 33.3759 150.549 33.4848 150.485 33.5787C150.442 33.6375 150.385 33.6844 150.319 33.7147C150.253 33.745 150.18 33.7577 150.108 33.7517L148.427 33.7557ZM146.47 31.7477V30.2077C146.502 29.6734 146.367 29.1424 146.083 28.6887C145.96 28.5176 145.798 28.3796 145.609 28.2871C145.42 28.1946 145.212 28.1504 145.002 28.1587C144.794 28.1578 144.589 28.2033 144.402 28.2917C144.207 28.376 144.033 28.5012 143.892 28.6587C143.735 28.8208 143.61 29.0112 143.525 29.2197C143.428 29.4558 143.38 29.7087 143.382 29.9637C143.373 30.2468 143.425 30.5283 143.535 30.7897C143.63 31.003 143.773 31.1916 143.953 31.3407C144.131 31.4833 144.334 31.5906 144.553 31.6567C144.781 31.7183 145.016 31.7492 145.253 31.7487H146.466L146.47 31.7477Z" fill="#002F5F"/>
<path d="M150.038 33.7559C149.844 33.7559 149.712 33.7049 149.661 33.6129C149.602 33.5185 149.573 33.4081 149.579 33.2969V32.2779C149.583 32.1478 149.621 32.0211 149.691 31.9109C149.73 31.8535 149.784 31.8074 149.846 31.777C149.909 31.7467 149.978 31.7332 150.048 31.7379H151.71C151.809 31.7512 151.911 31.735 152.001 31.6915C152.092 31.648 152.168 31.579 152.22 31.4929C152.315 31.2853 152.361 31.0582 152.353 30.8299V21.3379H154.341V30.1379C154.323 30.5424 154.433 30.9423 154.657 31.2799C154.807 31.4448 154.994 31.5716 155.202 31.6497C155.411 31.7278 155.636 31.755 155.857 31.7289H156.457C156.651 31.7289 156.783 31.7799 156.834 31.8719C156.896 31.969 156.928 32.0825 156.926 32.1979V33.2579C156.916 33.3711 156.878 33.48 156.814 33.5739C156.775 33.6313 156.721 33.6774 156.658 33.7078C156.596 33.7381 156.526 33.7516 156.457 33.7469H155.784C155.355 33.7654 154.933 33.6397 154.584 33.3899C154.301 33.1774 154.063 32.9105 153.884 32.6049C153.702 32.9712 153.41 33.2708 153.048 33.4609C152.657 33.6599 152.222 33.7578 151.784 33.7459H150.041L150.038 33.7559Z" fill="#002F5F"/>
<path d="M156.358 33.7561C156.29 33.7624 156.221 33.7527 156.158 33.7279C156.094 33.7031 156.037 33.6638 155.991 33.6131C155.922 33.5225 155.887 33.4108 155.891 33.2971V32.2771C155.895 32.1469 155.934 32.0202 156.003 31.9101C156.042 31.8527 156.096 31.8065 156.159 31.7762C156.221 31.7459 156.291 31.7324 156.36 31.7371H158.124C158.349 31.7384 158.573 31.728 158.797 31.7061C158.965 31.6887 159.132 31.6613 159.297 31.6241C159.077 31.4152 158.869 31.1938 158.675 30.9611C158.475 30.7161 158.275 30.4821 158.104 30.2371C157.941 30.0216 157.792 29.7969 157.655 29.5641C157.551 29.3973 157.465 29.2196 157.4 29.0341L157.329 27.6471C157.601 27.4268 157.891 27.2291 158.196 27.0561C158.527 26.8687 158.871 26.7053 159.226 26.5671C159.59 26.4276 159.966 26.3186 160.348 26.2411C160.723 26.1602 161.106 26.1193 161.49 26.1191C162.006 26.1098 162.52 26.1717 163.019 26.3031C163.397 26.4007 163.756 26.5627 164.079 26.7821C164.332 26.9516 164.544 27.1745 164.701 27.4351C164.829 27.64 164.898 27.8763 164.901 28.1181C164.886 28.6815 164.758 29.2361 164.524 29.7491C164.163 30.4882 163.656 31.147 163.035 31.6861C163.438 31.7261 163.843 31.7431 164.248 31.7371H165.716C165.786 31.7287 165.856 31.7373 165.922 31.7622C165.988 31.7872 166.046 31.8276 166.093 31.8801C166.162 31.9743 166.197 32.0892 166.193 32.2061V33.2661C166.184 33.3793 166.145 33.4882 166.081 33.5821C166.038 33.6409 165.981 33.6878 165.915 33.7181C165.849 33.7484 165.776 33.7611 165.704 33.7551H164.195C163.541 33.7708 162.888 33.6882 162.258 33.5101C161.844 33.3913 161.444 33.2273 161.065 33.0211C160.621 33.2777 160.139 33.4636 159.638 33.5721C159.139 33.6843 158.63 33.7423 158.119 33.7451H156.355L156.358 33.7561ZM161.466 28.0471C161.058 28.0523 160.651 28.1002 160.253 28.1901C159.888 28.2643 159.537 28.3949 159.213 28.5771C159.291 28.7327 159.379 28.8828 159.478 29.0261C159.6 29.2201 159.763 29.4341 159.947 29.6681C160.133 29.9043 160.334 30.129 160.547 30.3411C160.741 30.5504 160.96 30.7354 161.199 30.8921C161.458 30.7371 161.701 30.5561 161.923 30.3521C162.138 30.1584 162.333 29.9433 162.504 29.7101C162.654 29.5111 162.78 29.2957 162.881 29.0681C162.966 28.8964 163.015 28.7087 163.024 28.5171C163.022 28.4691 163.008 28.4225 162.983 28.3816C162.958 28.3407 162.923 28.3068 162.881 28.2831C162.769 28.2121 162.644 28.1635 162.514 28.1401C162.361 28.1091 162.198 28.0791 162.025 28.0581C161.833 28.0571 161.649 28.0471 161.466 28.0471Z" fill="#002F5F"/>
<path d="M165.627 33.7559C165.558 33.7622 165.49 33.7525 165.426 33.7277C165.362 33.7029 165.305 33.6636 165.26 33.6129C165.191 33.5223 165.155 33.4106 165.16 33.2969V32.2669C165.161 32.1363 165.199 32.0088 165.272 31.8999C165.311 31.8425 165.364 31.7963 165.427 31.766C165.49 31.7356 165.559 31.7222 165.629 31.7269H166.302C166.43 31.7265 166.557 31.7059 166.679 31.6659C166.811 31.6174 166.928 31.5324 167.015 31.4209C167.126 31.2722 167.206 31.102 167.249 30.9209C167.312 30.6537 167.339 30.3793 167.331 30.1049C167.326 29.5867 167.416 29.072 167.596 28.5859C167.764 28.1417 168.017 27.7342 168.34 27.3859C168.668 27.04 169.063 26.7648 169.501 26.5772C169.94 26.3896 170.412 26.2935 170.889 26.2949C171.37 26.2644 171.852 26.3451 172.298 26.5308C172.743 26.7165 173.14 27.0022 173.458 27.3659C174.097 28.2303 174.411 29.2926 174.345 30.3659C174.346 30.5002 174.36 30.6341 174.386 30.7659C174.413 30.933 174.482 31.0906 174.586 31.2249C174.706 31.3829 174.864 31.5089 175.045 31.5919C175.305 31.705 175.587 31.7573 175.871 31.7449H176.493C176.558 31.7376 176.624 31.745 176.685 31.7663C176.747 31.7877 176.804 31.8226 176.851 31.8684C176.897 31.9143 176.933 31.9699 176.956 32.0314C176.979 32.0929 176.987 32.1586 176.982 32.2239V33.2949C176.973 33.4098 176.93 33.5197 176.86 33.6109C176.817 33.6678 176.762 33.7134 176.698 33.7436C176.634 33.7738 176.563 33.7876 176.493 33.7839H175.82C175.367 33.7936 174.923 33.6656 174.546 33.4169C174.195 33.1902 173.915 32.8684 173.741 32.4889C173.565 32.7803 173.341 33.0392 173.078 33.2539C172.865 33.4296 172.623 33.5676 172.364 33.6619C172.116 33.7474 171.859 33.8021 171.599 33.8249C171.334 33.8449 171.059 33.8559 170.783 33.8559C170.215 33.8754 169.652 33.7541 169.144 33.5029C168.729 33.28 168.368 32.9707 168.084 32.5959C167.925 32.9277 167.687 33.215 167.391 33.4319C167.097 33.6541 166.738 33.7724 166.371 33.7679H165.627V33.7559ZM170.888 31.8389C171.115 31.857 171.344 31.8223 171.556 31.7375C171.768 31.6527 171.958 31.52 172.111 31.3499C172.378 31.0036 172.515 30.5741 172.498 30.1369C172.5 29.862 172.452 29.589 172.355 29.3319C172.271 29.1061 172.15 28.8959 171.998 28.7099C171.859 28.5403 171.685 28.4037 171.488 28.3099C171.301 28.2184 171.096 28.1696 170.888 28.1669C170.672 28.167 170.459 28.2158 170.266 28.3099C170.068 28.4037 169.894 28.5403 169.756 28.7099C169.606 28.8964 169.489 29.1066 169.409 29.3319C169.321 29.5912 169.276 29.8631 169.276 30.1369C169.263 30.5734 169.399 31.0013 169.663 31.3499C169.815 31.5203 170.005 31.6531 170.218 31.7379C170.43 31.8228 170.659 31.8573 170.888 31.8389Z" fill="#002F5F"/>
<path d="M176.433 33.7559C176.239 33.7559 176.107 33.7049 176.056 33.6129C175.997 33.5185 175.969 33.4081 175.974 33.2969V32.2779C175.978 32.1478 176.017 32.0211 176.086 31.9109C176.126 31.8535 176.179 31.8074 176.242 31.777C176.304 31.7467 176.374 31.7332 176.443 31.7379H178.105C178.205 31.7512 178.306 31.735 178.397 31.6915C178.488 31.648 178.563 31.579 178.615 31.4929C178.711 31.2853 178.756 31.0582 178.748 30.8299V21.3379H180.736V30.1379C180.718 30.5424 180.829 30.9423 181.052 31.2799C181.202 31.4448 181.389 31.5716 181.598 31.6497C181.807 31.7278 182.031 31.755 182.252 31.7289H182.852C183.046 31.7289 183.178 31.7799 183.229 31.8719C183.292 31.969 183.324 32.0825 183.321 32.1979V33.2579C183.312 33.3711 183.273 33.48 183.209 33.5739C183.17 33.6313 183.116 33.6774 183.054 33.7078C182.991 33.7381 182.922 33.7516 182.852 33.7469H182.179C181.751 33.7654 181.328 33.6397 180.979 33.3899C180.696 33.1774 180.458 32.9105 180.279 32.6049C180.098 32.9711 179.805 33.2707 179.443 33.4609C179.052 33.6599 178.618 33.7578 178.179 33.7459H176.436L176.433 33.7559Z" fill="#002F5F"/>
<path d="M182.734 33.7559C182.668 33.7634 182.6 33.7543 182.538 33.7294C182.475 33.7044 182.42 33.6644 182.377 33.6129C182.315 33.5195 182.283 33.4092 182.285 33.2969V32.2769C182.285 32.1478 182.319 32.021 182.385 31.9099C182.422 31.8526 182.474 31.8063 182.535 31.7758C182.596 31.7454 182.664 31.7319 182.732 31.7369H184.771V21.3579H186.729V33.7579L182.734 33.7559Z" fill="#002F5F"/>
<path d="M198.789 33.7558C198.468 33.7616 198.152 33.6845 197.871 33.5318C197.619 33.3972 197.391 33.2214 197.198 33.0118V33.4808C197.201 33.9738 197.134 34.4649 196.998 34.9388C196.867 35.369 196.656 35.7705 196.376 36.1218C196.1 36.4577 195.751 36.7262 195.356 36.9068C194.914 37.1057 194.433 37.2031 193.949 37.1918C193.748 37.1918 193.548 37.1815 193.349 37.1608C193.155 37.1401 192.992 37.1198 192.86 37.0998L192.605 37.0688C192.532 37.0566 192.461 37.0396 192.391 37.0178L192.591 35.0398L193.08 35.1398L193.518 35.2008C193.659 35.2205 193.802 35.2309 193.946 35.2318C194.145 35.257 194.347 35.2243 194.528 35.1376C194.709 35.0508 194.861 34.9137 194.966 34.7428C195.161 34.2971 195.249 33.8116 195.221 33.3258V26.8638H197.199V30.1568C197.18 30.5613 197.291 30.9611 197.515 31.2988C197.668 31.4653 197.859 31.5929 198.072 31.671C198.285 31.7491 198.513 31.7754 198.738 31.7478H199.338C199.532 31.7478 199.664 31.7988 199.715 31.8908C199.774 31.9889 199.802 32.1024 199.797 32.2168V33.2768C199.792 33.3891 199.758 33.4982 199.697 33.5928C199.656 33.6517 199.601 33.6988 199.537 33.7293C199.472 33.7597 199.401 33.7723 199.33 33.7658H198.79L198.789 33.7558Z" fill="#002F5F"/>
<path d="M199.23 33.7559C199.162 33.7645 199.092 33.7558 199.028 33.7309C198.964 33.7059 198.907 33.6654 198.863 33.6129C198.804 33.5185 198.775 33.4082 198.781 33.2969V32.2769C198.781 32.1478 198.815 32.021 198.881 31.9099C198.918 31.8526 198.97 31.8063 199.031 31.7759C199.092 31.7454 199.16 31.732 199.228 31.7369H201.675V26.8369H203.653V28.2949C204.09 27.714 204.637 27.2253 205.264 26.8569C205.93 26.4641 206.691 26.2598 207.464 26.2659C208.054 26.2589 208.64 26.3697 209.187 26.5919C209.682 26.8026 210.129 27.1111 210.502 27.4989C210.875 27.8974 211.16 28.37 211.338 28.8859C211.538 29.4452 211.64 30.035 211.638 30.6289C211.622 30.793 211.649 30.9585 211.717 31.1088C211.785 31.259 211.891 31.3887 212.025 31.4849C212.388 31.6769 212.798 31.7651 213.208 31.7399H213.657C213.851 31.7399 213.983 31.7909 214.034 31.8829C214.093 31.9811 214.122 32.0945 214.116 32.2089V33.2689C214.111 33.3813 214.077 33.4904 214.016 33.5849C213.976 33.6439 213.921 33.691 213.856 33.7214C213.792 33.7518 213.72 33.7645 213.649 33.7579H213.16C212.729 33.7786 212.302 33.6567 211.947 33.4109C211.657 33.2054 211.414 32.9414 211.233 32.6359C211.056 33.0064 210.757 33.3051 210.387 33.4819C209.965 33.6738 209.505 33.7678 209.041 33.7569L199.23 33.7559ZM209.069 31.7479C209.162 31.761 209.256 31.7457 209.34 31.7039C209.424 31.6621 209.493 31.5959 209.538 31.5139C209.62 31.2784 209.654 31.0288 209.638 30.7799C209.683 30.0886 209.469 29.4051 209.038 28.8629C208.803 28.63 208.521 28.4503 208.21 28.336C207.899 28.2216 207.568 28.1752 207.238 28.1999C206.791 28.1982 206.348 28.2955 205.943 28.4849C205.536 28.6755 205.166 28.938 204.852 29.2599C204.53 29.5919 204.265 29.9743 204.067 30.3919C203.86 30.8173 203.732 31.2768 203.69 31.7479H209.069Z" fill="#002F5F"/>
<path d="M213.554 33.7558C213.486 33.7621 213.418 33.7525 213.354 33.7276C213.29 33.7028 213.233 33.6635 213.187 33.6128C213.118 33.5223 213.083 33.4105 213.087 33.2968V32.2768C213.091 32.1467 213.13 32.02 213.199 31.9098C213.239 31.8524 213.292 31.8062 213.355 31.7759C213.417 31.7456 213.487 31.7321 213.556 31.7368H214.229C214.943 31.7368 215.3 31.1965 215.299 30.1158C215.297 29.5912 215.387 29.0703 215.564 28.5768C215.732 28.1261 215.988 27.7136 216.318 27.3638C216.641 27.0276 217.026 26.7561 217.45 26.5638C217.9 26.3679 218.387 26.2707 218.877 26.2788C219.399 26.2705 219.917 26.3728 220.396 26.5788C220.815 26.7588 221.183 27.0391 221.467 27.3948C221.756 27.7652 221.97 28.1875 222.099 28.6388C222.242 29.1564 222.31 29.6919 222.299 30.2288C222.3 30.6736 222.238 31.1162 222.115 31.5438C222.003 31.9613 221.797 32.3481 221.515 32.6758C221.225 33.0135 220.863 33.2818 220.455 33.4608C219.956 33.6713 219.417 33.7736 218.875 33.7608C218.62 33.7624 218.364 33.7487 218.11 33.7198C217.853 33.6924 217.6 33.6344 217.356 33.5468C216.827 33.3656 216.364 33.0277 216.031 32.5778C215.891 32.9434 215.637 33.2543 215.307 33.4648C215.015 33.6526 214.675 33.7516 214.328 33.7498H213.553L213.554 33.7558ZM218.845 31.8558C219.071 31.8742 219.297 31.8384 219.506 31.7514C219.715 31.6644 219.9 31.5288 220.045 31.3558C220.311 31.0087 220.448 30.5798 220.432 30.1428C220.434 29.8644 220.385 29.588 220.289 29.3268C220.206 29.101 220.085 28.8908 219.932 28.7048C219.795 28.5379 219.625 28.4016 219.432 28.3048C219.246 28.2122 219.041 28.1633 218.832 28.1618C218.617 28.1619 218.404 28.2108 218.21 28.3048C218.013 28.3986 217.839 28.5353 217.7 28.7048C217.551 28.8913 217.433 29.1016 217.353 29.3268C217.26 29.5884 217.215 29.865 217.22 30.1428C217.21 30.5735 217.342 30.9956 217.597 31.3428C217.749 31.5227 217.941 31.6635 218.158 31.7535C218.375 31.8435 218.611 31.8799 218.845 31.8598V31.8558Z" fill="#002F5F"/>
<path d="M231.528 33.7561C230.916 33.7724 230.307 33.6685 229.734 33.4501C229.284 33.2686 228.875 32.9963 228.534 32.6501C228.225 32.3342 227.995 31.9502 227.861 31.5291C227.725 31.1218 227.657 30.6946 227.661 30.2651C227.659 29.7361 227.752 29.2109 227.936 28.7151C228.112 28.2411 228.371 27.8025 228.701 27.4201C229.026 27.0526 229.421 26.7543 229.863 26.5431C230.31 26.3456 230.791 26.2386 231.28 26.2281C231.768 26.2177 232.254 26.304 232.708 26.4821C233.109 26.6416 233.47 26.8847 233.769 27.1951C234.068 27.5055 234.297 27.8761 234.441 28.2821C234.601 28.7313 234.681 29.2052 234.676 29.6821V31.7431H235.91C235.977 31.7387 236.043 31.7493 236.105 31.774C236.167 31.7988 236.222 31.8371 236.267 31.8861C236.34 31.9791 236.38 32.0939 236.379 32.2121V33.2721C236.37 33.3853 236.331 33.4942 236.267 33.5881C236.228 33.6455 236.174 33.6916 236.112 33.722C236.049 33.7523 235.98 33.7658 235.91 33.7611H231.536L231.528 33.7561ZM228.898 24.1621C228.898 24.0291 228.925 23.8975 228.976 23.7749C229.028 23.6523 229.103 23.5412 229.198 23.4481C229.4 23.2581 229.666 23.1523 229.943 23.1523C230.22 23.1523 230.486 23.2581 230.687 23.4481C230.784 23.5401 230.86 23.6509 230.912 23.7738C230.963 23.8967 230.989 24.0288 230.987 24.1621C230.988 24.2952 230.962 24.4271 230.91 24.5498C230.859 24.6725 230.783 24.7835 230.687 24.8761C230.486 25.066 230.22 25.1718 229.943 25.1718C229.666 25.1718 229.4 25.066 229.198 24.8761C229.1 24.7855 229.022 24.6749 228.971 24.5517C228.919 24.4285 228.894 24.2956 228.898 24.1621ZM232.691 31.7471V30.2071C232.726 29.6739 232.595 29.143 232.314 28.6881C232.192 28.5126 232.027 28.3715 231.834 28.2787C231.641 28.1859 231.428 28.1443 231.214 28.1581C231.007 28.1574 230.802 28.2028 230.614 28.2911C230.42 28.3754 230.246 28.5006 230.104 28.6581C229.948 28.8202 229.823 29.0106 229.737 29.2191C229.641 29.4552 229.593 29.7081 229.594 29.9631C229.586 30.2462 229.638 30.5278 229.747 30.7891C229.842 31.0024 229.985 31.191 230.165 31.3401C230.343 31.4827 230.547 31.59 230.765 31.6561C230.994 31.7177 231.229 31.7486 231.465 31.7481H232.688L232.691 31.7471ZM231.6 24.1621C231.6 24.0291 231.627 23.8975 231.678 23.7749C231.73 23.6523 231.805 23.5412 231.9 23.4481C232.102 23.2584 232.368 23.1528 232.644 23.1528C232.921 23.1528 233.187 23.2584 233.388 23.4481C233.485 23.5401 233.561 23.6509 233.613 23.7738C233.664 23.8967 233.69 24.0288 233.688 24.1621C233.689 24.2952 233.663 24.4271 233.611 24.5498C233.56 24.6725 233.484 24.7835 233.388 24.8761C233.187 25.0657 232.921 25.1713 232.644 25.1713C232.368 25.1713 232.102 25.0657 231.9 24.8761C231.802 24.7855 231.724 24.6749 231.673 24.5517C231.621 24.4285 231.596 24.2956 231.6 24.1621Z" fill="#002F5F"/>
<path d="M235.791 33.7561C235.723 33.7624 235.654 33.7528 235.59 33.7279C235.527 33.7031 235.469 33.6638 235.424 33.6131C235.355 33.5225 235.319 33.4108 235.324 33.2971V32.2771C235.328 32.1469 235.366 32.0202 235.436 31.9101C235.475 31.8527 235.529 31.8065 235.591 31.7762C235.654 31.7459 235.723 31.7324 235.793 31.7371H237.557C237.781 31.7384 238.006 31.728 238.23 31.7061C238.398 31.6887 238.565 31.6613 238.73 31.6241C238.51 31.4152 238.302 31.1938 238.108 30.9611C237.908 30.7161 237.708 30.4821 237.537 30.2371C237.374 30.0216 237.224 29.7969 237.088 29.5641C236.983 29.3973 236.898 29.2196 236.833 29.0341L236.762 27.6471C237.034 27.4268 237.324 27.2291 237.629 27.0561C237.96 26.8687 238.304 26.7053 238.659 26.5671C239.023 26.4277 239.398 26.3186 239.78 26.2411C240.155 26.1602 240.538 26.1193 240.922 26.1191C241.437 26.1098 241.952 26.1717 242.451 26.3031C242.829 26.4007 243.187 26.5627 243.511 26.7821C243.763 26.9516 243.976 27.1745 244.133 27.4351C244.261 27.64 244.33 27.8763 244.333 28.1181C244.317 28.6815 244.189 29.2361 243.956 29.7491C243.594 30.4882 243.088 31.147 242.467 31.6861C242.87 31.7261 243.275 31.7431 243.68 31.7371H245.148C245.217 31.7287 245.288 31.7373 245.354 31.7623C245.419 31.7872 245.478 31.8276 245.525 31.8801C245.594 31.9743 245.629 32.0892 245.625 32.2061V33.2661C245.615 33.3793 245.577 33.4882 245.513 33.5821C245.47 33.6409 245.413 33.6878 245.347 33.7181C245.281 33.7484 245.208 33.7611 245.136 33.7551H243.627C242.972 33.7708 242.319 33.6882 241.69 33.5101C241.275 33.3913 240.875 33.2273 240.497 33.0211C240.052 33.2777 239.571 33.4636 239.07 33.5721C238.571 33.6843 238.062 33.7424 237.551 33.7451H235.787L235.791 33.7561ZM240.899 28.0471C240.49 28.0523 240.084 28.1002 239.686 28.1901C239.321 28.2643 238.97 28.3949 238.646 28.5771C238.723 28.7327 238.812 28.8828 238.911 29.0261C239.033 29.2201 239.197 29.4341 239.38 29.6681C239.566 29.9043 239.766 30.129 239.98 30.3411C240.174 30.5505 240.393 30.7355 240.633 30.8921C240.892 30.7371 241.134 30.5561 241.357 30.3521C241.572 30.1584 241.766 29.9433 241.938 29.7101C242.087 29.5111 242.214 29.2957 242.315 29.0681C242.4 28.8964 242.449 28.7087 242.458 28.5171C242.456 28.4691 242.441 28.4225 242.416 28.3816C242.391 28.3407 242.356 28.3068 242.315 28.2831C242.203 28.212 242.078 28.1635 241.948 28.1401C241.795 28.1091 241.632 28.0791 241.459 28.0581C241.266 28.0571 241.082 28.0471 240.899 28.0471Z" fill="#002F5F"/>
<path d="M245.058 33.7558C244.99 33.7624 244.921 33.7529 244.857 33.7281C244.793 33.7033 244.735 33.6638 244.689 33.6128C244.62 33.5223 244.585 33.4105 244.589 33.2968V32.2768C244.593 32.1467 244.632 32.02 244.701 31.9098C244.741 31.8524 244.794 31.8062 244.857 31.7759C244.919 31.7456 244.989 31.7321 245.058 31.7368H245.731C246.445 31.7368 246.802 31.1965 246.802 30.1158C246.8 29.5912 246.889 29.0703 247.067 28.5768C247.235 28.1261 247.491 27.7136 247.821 27.3638C248.144 27.0276 248.528 26.7561 248.953 26.5638C249.403 26.3679 249.89 26.2707 250.38 26.2788C250.902 26.2705 251.42 26.3728 251.899 26.5788C252.316 26.7616 252.683 27.0413 252.97 27.3948C253.259 27.7652 253.473 28.1875 253.602 28.6388C253.745 29.1564 253.813 29.6919 253.802 30.2288C253.803 30.6735 253.741 31.1161 253.619 31.5438C253.506 31.9613 253.301 32.3481 253.019 32.6758C252.729 33.0135 252.367 33.2818 251.959 33.4608C251.46 33.6713 250.921 33.7736 250.379 33.7608C250.124 33.7624 249.868 33.7487 249.614 33.7198C249.357 33.6925 249.103 33.6344 248.859 33.5468C248.33 33.3656 247.867 33.0277 247.534 32.5778C247.394 32.9434 247.14 33.2543 246.81 33.4648C246.518 33.6526 246.178 33.7516 245.831 33.7498H245.056L245.058 33.7558ZM250.358 31.8558C250.584 31.8742 250.81 31.8384 251.019 31.7514C251.228 31.6644 251.413 31.5288 251.558 31.3558C251.824 31.0087 251.961 30.5798 251.945 30.1428C251.947 29.8644 251.898 29.588 251.802 29.3268C251.719 29.101 251.598 28.8908 251.445 28.7048C251.308 28.5379 251.138 28.4016 250.945 28.3048C250.759 28.2122 250.554 28.1633 250.345 28.1618C250.13 28.1619 249.917 28.2108 249.723 28.3048C249.526 28.3986 249.351 28.5353 249.213 28.7048C249.064 28.8913 248.946 29.1015 248.866 29.3268C248.773 29.5884 248.728 29.865 248.733 30.1428C248.723 30.5735 248.855 30.9956 249.11 31.3428C249.26 31.5246 249.453 31.6668 249.671 31.757C249.889 31.8471 250.125 31.8824 250.36 31.8598L250.358 31.8558Z" fill="#002F5F"/>
<path d="M256.12 21.3579H258.098V31.7469H259.27C259.34 31.7386 259.411 31.7473 259.476 31.7722C259.542 31.7971 259.601 31.8375 259.647 31.8899C259.717 31.9842 259.752 32.0991 259.747 32.2159V33.2759C259.738 33.3909 259.696 33.5007 259.625 33.5919C259.583 33.6489 259.528 33.6945 259.464 33.7247C259.4 33.7549 259.329 33.7687 259.258 33.7649H256.11V21.3579H256.12Z" fill="#002F5F"/>
<path d="M263.808 29.8097C263.801 29.3633 263.651 28.931 263.38 28.5757C263.245 28.4506 263.086 28.3544 262.913 28.2931C262.739 28.2317 262.555 28.2064 262.371 28.2187C262.066 28.2263 261.761 28.2672 261.464 28.3407C261.101 28.4215 260.749 28.5446 260.414 28.7077L259.914 26.8007C260.057 26.7397 260.23 26.6787 260.454 26.6067C260.678 26.5347 260.903 26.4737 261.154 26.4127C261.405 26.3517 261.664 26.3127 261.929 26.2697C262.196 26.2294 262.466 26.209 262.735 26.2087C263.178 26.1999 263.619 26.2795 264.03 26.4427C264.385 26.5879 264.699 26.8151 264.948 27.1057C265.201 27.4045 265.398 27.7463 265.529 28.1147C265.676 28.5308 265.776 28.9617 265.829 29.3997C265.849 29.6337 265.88 29.8587 265.911 30.0827C265.942 30.3109 266.004 30.5339 266.094 30.7457C266.182 30.9608 266.298 31.1627 266.441 31.3457C266.599 31.5393 266.789 31.7047 267.002 31.8347V33.7617H259.192C259.124 33.768 259.056 33.7583 258.992 33.7335C258.928 33.7087 258.871 33.6694 258.825 33.6187C258.756 33.5281 258.721 33.4164 258.725 33.3027V32.2827C258.729 32.1525 258.768 32.0258 258.837 31.9157C258.877 31.8583 258.93 31.8121 258.993 31.7818C259.056 31.7514 259.125 31.738 259.194 31.7427H264.594C264.436 31.5323 264.293 31.3107 264.166 31.0797C263.968 30.6827 263.847 30.2518 263.808 29.8097ZM262.238 35.9367C262.237 35.8056 262.263 35.6757 262.315 35.5552C262.367 35.4347 262.443 35.3262 262.538 35.2367C262.741 35.0531 263.004 34.9514 263.277 34.9514C263.551 34.9514 263.814 35.0531 264.016 35.2367C264.113 35.3254 264.19 35.4337 264.242 35.5543C264.294 35.675 264.319 35.8054 264.316 35.9367C264.319 36.0715 264.294 36.2055 264.242 36.3301C264.191 36.4547 264.114 36.5673 264.016 36.6607C263.814 36.8442 263.551 36.9459 263.277 36.9459C263.004 36.9459 262.741 36.8442 262.538 36.6607C262.442 36.5668 262.365 36.4541 262.313 36.3297C262.262 36.2052 262.236 36.0715 262.237 35.9367H262.238Z" fill="#002F5F"/>
<path d="M107.708 40.6089H115.834V42.5869H109.89V45.6049H115.518V47.5789H109.89V50.9029H116.14V52.8809H107.708V40.6089Z" fill="#002F5F"/>
<path d="M129.18 51.9729C127.616 52.7959 125.87 53.213 124.103 53.1859C123.212 53.1957 122.327 53.0401 121.493 52.7269C120.731 52.4415 120.036 52.0005 119.454 51.4319C118.873 50.8569 118.415 50.17 118.108 49.4129C117.772 48.5808 117.606 47.6901 117.619 46.7929C117.606 45.8792 117.772 44.9718 118.108 44.1219C118.405 43.3573 118.86 42.6638 119.443 42.0868C120.026 41.5097 120.724 41.062 121.492 40.7729C122.326 40.4597 123.211 40.3041 124.102 40.3139C124.986 40.3085 125.866 40.4181 126.722 40.6399C127.544 40.8654 128.302 41.2809 128.934 41.8529L127.323 43.4839C126.911 43.0958 126.426 42.7942 125.896 42.5969C125.328 42.3883 124.727 42.2813 124.122 42.2809C123.53 42.272 122.944 42.3865 122.399 42.6169C121.897 42.8349 121.446 43.1542 121.074 43.5549C120.702 43.9628 120.411 44.438 120.218 44.9549C120.011 45.5021 119.907 46.0829 119.912 46.6679C119.905 47.2863 120.008 47.9011 120.218 48.4829C120.409 49.0124 120.699 49.5005 121.074 49.9209C121.443 50.3277 121.895 50.6509 122.399 50.8689C122.941 51.1078 123.529 51.2262 124.122 51.2159C124.649 51.2185 125.175 51.1673 125.692 51.0629C126.149 50.9727 126.588 50.8074 126.992 50.5739V47.6729H124.484V45.6959H129.174L129.18 51.9729Z" fill="#002F5F"/>
<path d="M134.755 47.6229L130.147 40.6089H132.879L135.897 45.4929L138.945 40.6089H141.545L136.937 47.6229V52.8789H134.755V47.6229Z" fill="#002F5F"/>
<path d="M142.678 40.6089H146.797C147.368 40.6085 147.937 40.6665 148.497 40.7819C149.012 40.8805 149.504 41.0777 149.945 41.3629C150.363 41.6384 150.707 42.0132 150.945 42.4539C151.209 42.9807 151.339 43.5648 151.322 44.1539C151.35 44.7999 151.212 45.4423 150.922 46.0199C150.669 46.4753 150.3 46.8551 149.852 47.1199C149.367 47.396 148.834 47.576 148.282 47.6499C147.664 47.7455 147.04 47.7933 146.416 47.7929H144.856V52.8789H142.678V40.6089ZM146.178 45.9309C146.494 45.9309 146.81 45.9209 147.147 45.8999C147.465 45.8828 147.778 45.8153 148.075 45.6999C148.349 45.5936 148.589 45.4137 148.768 45.1799C148.938 44.8972 149.029 44.5744 149.033 44.2446C149.036 43.9148 148.952 43.5901 148.788 43.3039C148.628 43.0808 148.414 42.9018 148.166 42.7839C147.899 42.6573 147.613 42.5781 147.32 42.5499C147.004 42.5189 146.708 42.4989 146.42 42.4989H144.86V45.9449H146.175L146.178 45.9309Z" fill="#002F5F"/>
<path d="M155.769 42.5869H152.007V40.6089H161.707V42.5869H157.945V52.8789H155.763V42.5869H155.769Z" fill="#002F5F"/>
<path d="M177.352 48.3679C177.365 49.0534 177.237 49.7342 176.975 50.3679C176.735 50.9394 176.381 51.4562 175.935 51.8869C175.486 52.3096 174.955 52.6356 174.375 52.8449C173.108 53.2935 171.726 53.2935 170.46 52.8449C169.88 52.6294 169.347 52.3041 168.89 51.8869C168.435 51.4636 168.08 50.9448 167.85 50.3679C167.594 49.7325 167.466 49.0529 167.473 48.3679V40.6089H169.655V48.2959C169.66 48.6168 169.709 48.9356 169.798 49.2439C169.891 49.5732 170.046 49.8813 170.257 50.1509C170.484 50.439 170.773 50.6724 171.103 50.8339C171.51 51.0255 171.958 51.1163 172.408 51.0989C172.858 51.1124 173.304 51.0217 173.713 50.8339C174.042 50.6717 174.331 50.4384 174.559 50.1509C174.769 49.8813 174.925 49.5732 175.018 49.2439C175.109 48.9359 175.157 48.6169 175.161 48.2959V40.6089H177.343V48.3679H177.352Z" fill="#002F5F"/>
<path d="M180.033 40.6089H182.933L188.877 49.7239H188.908V40.6089H191.09V52.8789H188.317L182.251 43.4789H182.22V52.8789H180.033V40.6089Z" fill="#002F5F"/>
<path d="M193.767 40.6089H195.949V52.8789H193.767V40.6089Z" fill="#002F5F"/>
<path d="M197.213 40.6089H199.721L203.065 49.8769L206.511 40.6089H208.866L203.911 52.8789H202.025L197.213 40.6089Z" fill="#002F5F"/>
<path d="M210.182 40.6089H218.308V42.5869H212.364V45.6049H217.992V47.5789H212.364V50.9029H218.614V52.8809H210.182V40.6089Z" fill="#002F5F"/>
<path d="M220.765 40.6091H225.027C225.597 40.6054 226.167 40.66 226.727 40.7721C227.245 40.8704 227.743 41.0604 228.195 41.3331C228.62 41.597 228.971 41.9653 229.215 42.4031C229.514 43.0342 229.639 43.734 229.576 44.4298C229.513 45.1255 229.265 45.7918 228.858 46.3591C228.323 46.9769 227.571 47.3643 226.758 47.4401L230.01 52.8641H227.38L224.536 47.6641H222.945V52.8641H220.765V40.6091ZM224.649 45.8091C224.965 45.8091 225.271 45.7991 225.587 45.7681C225.88 45.7424 226.168 45.675 226.443 45.5681C226.696 45.464 226.915 45.2908 227.075 45.0681C227.254 44.7857 227.34 44.454 227.32 44.1201C227.335 43.815 227.257 43.5125 227.096 43.2531C226.952 43.0349 226.746 42.8646 226.505 42.7641C226.25 42.6488 225.978 42.5765 225.7 42.5501C225.415 42.5184 225.13 42.5014 224.844 42.4991H222.958V45.8191H224.65L224.649 45.8091Z" fill="#002F5F"/>
<path d="M237.689 43.2487C237.46 42.916 237.137 42.6602 236.761 42.5147C236.372 42.3596 235.957 42.2799 235.538 42.2797C235.29 42.2789 235.043 42.3098 234.804 42.3717C234.577 42.4296 234.36 42.5224 234.162 42.6467C233.971 42.7701 233.814 42.9379 233.703 43.1357C233.583 43.3581 233.524 43.6075 233.53 43.8597C233.518 44.0417 233.551 44.2239 233.628 44.3895C233.705 44.5551 233.821 44.6989 233.968 44.8077C234.294 45.0506 234.654 45.243 235.038 45.3787C235.466 45.5417 235.938 45.6947 236.445 45.8477C236.939 45.9921 237.412 46.2013 237.852 46.4697C238.283 46.7392 238.649 47.1013 238.923 47.5297C239.232 48.0605 239.381 48.6699 239.351 49.2837C239.365 49.8789 239.239 50.4691 238.984 51.0067C238.751 51.4811 238.417 51.8986 238.005 52.2297C237.58 52.5604 237.095 52.8062 236.578 52.9537C236.022 53.1191 235.445 53.2017 234.865 53.1987C234.118 53.2029 233.375 53.0753 232.673 52.8217C231.963 52.5598 231.334 52.1169 230.848 51.5367L232.489 49.9467C232.748 50.3507 233.11 50.678 233.539 50.8947C233.963 51.1178 234.435 51.2332 234.915 51.2307C235.173 51.2326 235.43 51.199 235.68 51.1307C235.927 51.0653 236.161 50.9584 236.373 50.8147C236.577 50.6774 236.747 50.4963 236.873 50.2847C237.001 50.0615 237.068 49.8082 237.067 49.5507C237.078 49.3564 237.045 49.162 236.971 48.982C236.897 48.802 236.783 48.641 236.639 48.5107C236.32 48.2467 235.958 48.0397 235.569 47.8987C235.141 47.7357 234.669 47.5727 234.162 47.4197C233.669 47.2743 233.197 47.0688 232.755 46.8077C232.322 46.5485 231.956 46.1925 231.685 45.7677C231.37 45.2427 231.217 44.6362 231.247 44.0247C231.233 43.4536 231.366 42.8886 231.634 42.3837C231.886 41.9302 232.234 41.537 232.654 41.2317C233.092 40.9197 233.582 40.6884 234.102 40.5487C235.266 40.2269 236.499 40.2515 237.65 40.6197C238.257 40.82 238.814 41.1507 239.281 41.5887L237.689 43.2487Z" fill="#002F5F"/>
<path d="M241.574 40.6089H243.756V52.8789H241.574V40.6089Z" fill="#002F5F"/>
<path d="M248.945 42.5869H245.183V40.6089H254.889V42.5869H251.127V52.8789H248.945V42.5869Z" fill="#002F5F"/>
<path d="M259.374 47.6229L254.766 40.6089H257.498L260.516 45.4929L263.564 40.6089H266.164L261.556 47.6229V52.8789H259.374V47.6229Z" fill="#002F5F"/>
<path d="M107.045 65.9029C107.032 64.9892 107.198 64.0818 107.534 63.2319C107.83 62.4662 108.285 61.7717 108.868 61.1938C109.452 60.6159 110.15 60.1675 110.919 59.8779C111.753 59.5647 112.638 59.4091 113.529 59.4189C114.422 59.4109 115.309 59.563 116.149 59.8679C116.922 60.1482 117.628 60.5894 118.218 61.1624C118.809 61.7354 119.271 62.4271 119.575 63.1919C119.91 64.0383 120.077 64.9424 120.064 65.8529C120.076 66.75 119.909 67.6405 119.575 68.4729C119.268 69.2404 118.805 69.9359 118.215 70.515C117.625 71.0941 116.922 71.5442 116.149 71.8369C115.313 72.1565 114.424 72.3156 113.529 72.3059C112.638 72.3157 111.753 72.1601 110.919 71.8469C110.156 71.5615 109.462 71.1205 108.88 70.5519C108.299 69.9768 107.841 69.29 107.534 68.5329C107.201 67.6965 107.035 66.8031 107.045 65.9029ZM109.329 65.7599C109.321 66.3783 109.425 66.993 109.635 67.5749C109.826 68.1044 110.116 68.5925 110.491 69.0129C110.86 69.4197 111.311 69.7429 111.816 69.9609C112.358 70.1997 112.946 70.3181 113.539 70.3079C114.134 70.3171 114.725 70.1988 115.272 69.9609C115.777 69.7385 116.231 69.416 116.608 69.0129C116.982 68.5925 117.273 68.1044 117.464 67.5749C117.672 66.9928 117.776 66.3783 117.77 65.7599C117.774 65.1749 117.671 64.5941 117.464 64.0469C117.27 63.53 116.98 63.0548 116.608 62.6469C116.233 62.2436 115.778 61.924 115.272 61.7089C114.723 61.4795 114.133 61.3651 113.539 61.3729C112.947 61.364 112.36 61.4785 111.816 61.7089C111.314 61.9269 110.863 62.2462 110.491 62.6469C110.119 63.0548 109.828 63.53 109.635 64.0469C109.427 64.5944 109.324 65.1746 109.329 65.7599Z" fill="#002F5F"/>
<path d="M123.225 59.7148H131.137V61.6928H125.407V64.9148H130.807V66.8928H125.407V71.9798H123.225V59.7148Z" fill="#002F5F"/>
<path d="M139.63 59.7148H141.812V71.9798H139.63V59.7148Z" fill="#002F5F"/>
<path d="M145.584 59.7148H148.484L154.428 68.8298H154.459V59.7148H156.641V71.9798H153.868L147.794 62.5798H147.763V71.9798H145.584V59.7148Z" fill="#002F5F"/>
<path d="M160.459 59.7148H168.371V61.6928H162.641V64.9148H168.041V66.8928H162.641V71.9798H160.459V59.7148Z" fill="#002F5F"/>
<path d="M170.838 65.9029C170.825 64.9892 170.991 64.0818 171.327 63.2319C171.623 62.4662 172.078 61.7717 172.661 61.1938C173.245 60.6159 173.943 60.1675 174.712 59.8779C175.546 59.5647 176.431 59.4091 177.322 59.4189C178.215 59.4109 179.102 59.563 179.942 59.8679C180.715 60.1482 181.421 60.5894 182.011 61.1624C182.602 61.7354 183.064 62.4271 183.368 63.1919C183.703 64.0383 183.869 64.9424 183.857 65.8529C183.869 66.75 183.702 67.6405 183.368 68.4729C183.061 69.2404 182.598 69.9359 182.008 70.515C181.418 71.0941 180.715 71.5442 179.942 71.8369C179.106 72.1565 178.217 72.3156 177.322 72.3059C176.431 72.3157 175.546 72.1601 174.712 71.8469C173.949 71.5615 173.255 71.1205 172.673 70.5519C172.092 69.9768 171.634 69.29 171.327 68.5329C170.994 67.6965 170.827 66.8031 170.838 65.9029ZM173.122 65.7599C173.114 66.3783 173.218 66.993 173.428 67.5749C173.619 68.1044 173.909 68.5925 174.284 69.0129C174.653 69.4197 175.104 69.7429 175.609 69.9609C176.151 70.1997 176.739 70.3181 177.332 70.3079C177.927 70.3171 178.518 70.1988 179.065 69.9609C179.57 69.7385 180.024 69.416 180.401 69.0129C180.775 68.5925 181.066 68.1044 181.257 67.5749C181.465 66.9928 181.569 66.3783 181.563 65.7599C181.567 65.1749 181.464 64.5941 181.257 64.0469C181.063 63.53 180.773 63.0548 180.401 62.6469C180.026 62.2436 179.571 61.924 179.065 61.7089C178.516 61.4795 177.926 61.3651 177.332 61.3729C176.74 61.364 176.153 61.4785 175.609 61.7089C175.107 61.9269 174.656 62.2462 174.284 62.6469C173.912 63.0548 173.621 63.53 173.428 64.0469C173.22 64.5944 173.117 65.1746 173.122 65.7599Z" fill="#002F5F"/>
<path d="M187.008 59.715H191.27C191.841 59.7114 192.41 59.766 192.97 59.878C193.489 59.9763 193.986 60.1663 194.438 60.439C194.863 60.7029 195.215 61.0712 195.458 61.509C195.757 62.1401 195.882 62.84 195.819 63.5358C195.757 64.2315 195.508 64.8977 195.101 65.465C194.567 66.0829 193.814 66.4703 193.001 66.546L196.253 71.97H193.623L190.778 66.77H189.188V71.97H187.008V59.715ZM190.893 64.915C191.209 64.915 191.515 64.905 191.831 64.874C192.124 64.8483 192.412 64.781 192.687 64.674C192.94 64.5699 193.159 64.3967 193.319 64.174C193.498 63.8917 193.584 63.5599 193.564 63.226C193.579 62.9209 193.501 62.6185 193.34 62.359C193.196 62.1409 192.99 61.9706 192.749 61.87C192.494 61.7547 192.222 61.6824 191.944 61.656C191.66 61.6244 191.374 61.6074 191.088 61.605H189.202V64.925H190.888L190.893 64.915Z" fill="#002F5F"/>
<path d="M199.068 59.7148H202.392L205.665 68.3098L208.965 59.7148H212.258V71.9798H210.178V61.7948H210.147L206.426 71.9798H204.907L201.189 61.7948H201.158V71.9798H199.078V59.7148H199.068Z" fill="#002F5F"/>
<path d="M220.113 59.7148H221.999L227.28 71.9798H224.78L223.638 69.1798H218.32L217.209 71.9798H214.76L220.113 59.7148ZM222.886 67.3148L221 62.3248L219.073 67.3108L222.886 67.3148Z" fill="#002F5F"/>
<path d="M230.652 61.6928H226.892V59.7148H236.592V61.6928H232.83V71.9798H230.648V61.6928H230.652Z" fill="#002F5F"/>
<path d="M239.126 59.7148H241.308V71.9798H239.126V59.7148Z" fill="#002F5F"/>
<path d="M253.502 62.5901C253.147 62.173 252.703 61.8417 252.202 61.6211C251.796 61.4606 251.364 61.3775 250.928 61.3761C250.336 61.3672 249.749 61.4817 249.205 61.7121C248.703 61.93 248.252 62.2494 247.88 62.6501C247.508 63.058 247.217 63.5332 247.024 64.0501C246.817 64.5972 246.713 65.1781 246.718 65.7631C246.71 66.3815 246.814 66.9962 247.024 67.5781C247.215 68.1076 247.505 68.5957 247.88 69.0161C248.249 69.4229 248.7 69.7461 249.205 69.9641C249.747 70.2029 250.335 70.3213 250.928 70.3111C251.432 70.3078 251.928 70.1855 252.376 69.9541C252.891 69.6811 253.338 69.2939 253.681 68.8221L255.481 70.1071C254.969 70.8359 254.267 71.4106 253.452 71.7691C252.647 72.1179 251.779 72.295 250.903 72.2891C250.012 72.2989 249.127 72.1433 248.293 71.8301C247.53 71.5447 246.836 71.1037 246.254 70.5351C245.673 69.96 245.215 69.2732 244.908 68.5161C244.572 67.684 244.406 66.7933 244.419 65.8961C244.406 64.9824 244.572 64.075 244.908 63.2251C245.204 62.4594 245.659 61.7649 246.242 61.187C246.826 60.609 247.524 60.1606 248.293 59.8711C249.127 59.5579 250.012 59.4023 250.903 59.4121C251.691 59.4022 252.473 59.5512 253.203 59.8501C253.97 60.1936 254.65 60.7064 255.191 61.3501L253.502 62.5901Z" fill="#002F5F"/>
<path d="M264.054 62.3547C263.826 62.022 263.502 61.7662 263.126 61.6207C262.737 61.4659 262.322 61.3865 261.903 61.3867C261.655 61.3859 261.409 61.4168 261.169 61.4787C260.942 61.5366 260.725 61.6294 260.527 61.7537C260.337 61.8772 260.179 62.045 260.068 62.2427C259.949 62.4651 259.889 62.7145 259.895 62.9667C259.883 63.1487 259.917 63.3308 259.993 63.4964C260.07 63.662 260.187 63.8058 260.333 63.9147C260.659 64.1576 261.02 64.3501 261.404 64.4857C261.832 64.6487 262.304 64.8017 262.811 64.9547C263.305 65.0991 263.778 65.3083 264.218 65.5767C264.649 65.8462 265.015 66.2083 265.289 66.6367C265.599 67.1674 265.747 67.7769 265.717 68.3907C265.731 68.9858 265.605 69.576 265.35 70.1137C265.117 70.5881 264.783 71.0056 264.371 71.3367C263.946 71.6674 263.462 71.9132 262.944 72.0607C262.388 72.2262 261.811 72.3087 261.231 72.3057C260.484 72.3099 259.742 72.1823 259.039 71.9287C258.328 71.6656 257.698 71.2208 257.213 70.6387L258.854 69.0487C259.113 69.4527 259.476 69.78 259.904 69.9967C260.328 70.2198 260.801 70.3352 261.28 70.3327C261.538 70.3346 261.796 70.301 262.045 70.2327C262.292 70.1673 262.526 70.0604 262.738 69.9167C262.942 69.7794 263.113 69.5983 263.238 69.3867C263.366 69.1634 263.433 68.9102 263.432 68.6527C263.443 68.4584 263.41 68.264 263.336 68.084C263.262 67.904 263.149 67.7429 263.004 67.6127C262.685 67.3497 262.322 67.1436 261.933 67.0037C261.505 66.8407 261.033 66.6777 260.526 66.5247C260.034 66.3793 259.561 66.1737 259.119 65.9127C258.687 65.6536 258.32 65.2975 258.049 64.8727C257.734 64.3477 257.582 63.7412 257.611 63.1297C257.597 62.5586 257.731 61.9936 257.998 61.4887C258.25 61.0352 258.598 60.642 259.018 60.3367C259.456 60.0246 259.946 59.7933 260.466 59.6537C261.63 59.3319 262.863 59.3565 264.014 59.7247C264.622 59.925 265.178 60.2557 265.645 60.6937L264.054 62.3547Z" fill="#002F5F"/>
<path d="M86.7649 41.4642C87.8298 42.4108 88.6876 43.5674 89.2843 44.8612C89.881 46.155 90.2039 47.5583 90.2326 48.9828C90.2613 50.4073 89.9953 51.8224 89.4513 53.1393C88.9072 54.4561 88.0968 55.6463 87.0709 56.6352C80.1279 63.6282 73.1339 70.5822 66.1599 77.5552C59.4006 84.3252 52.6379 91.0915 45.8719 97.8542C45.6369 98.0892 45.3829 98.3132 45.3109 98.3742C33.8409 86.8842 22.4186 75.4552 11.0439 64.0872L48.4709 26.6602C50.7449 28.9032 53.181 31.3092 55.6489 33.7462L25.6639 63.7002L45.0969 83.1322L86.7649 41.4642Z" fill="#0046AD"/>
<path d="M9.31074 63.1901C6.32188 60.7257 3.72931 57.8168 1.62374 54.5651C0.344337 52.5287 -0.205144 50.1181 0.0654012 47.7284C0.335946 45.3387 1.41046 43.1119 3.11274 41.4131C13.0127 31.4011 23.0127 21.4811 32.9747 11.5301C33.0457 11.4591 33.1377 11.4301 33.0667 11.4691C35.5337 13.9571 37.9807 16.4141 40.5297 18.9931C40.3967 19.1361 40.0197 19.5641 39.6227 19.9621C29.9774 29.6174 20.3291 39.2658 10.6777 48.9071C10.5447 49.0401 10.4127 49.1821 10.2697 49.3151C6.22174 53.0461 5.32474 55.2991 8.51574 61.6921C8.68974 62.0691 8.90274 62.4361 9.31074 63.1901Z" fill="#00877C"/>
<path d="M53.1006 22.0111C55.3436 19.7271 57.7496 17.2911 60.0436 14.9561L82.4206 37.3351C80.1206 39.6091 77.6796 42.0251 75.3756 44.2981C68.0266 36.9371 60.5026 29.4131 53.1006 22.0111Z" fill="#C1A03E"/>
<path d="M45.2319 0C47.4439 2.192 49.8709 4.6 52.2569 6.963C49.8299 9.349 47.3839 11.755 45.0489 14.049C42.7749 11.775 40.3489 9.359 38.0859 7.096C40.3759 4.833 42.8019 2.416 45.2319 0Z" fill="#C1A03E"/>
</svg>
